<svg width="32" height="32" viewBox="0 0 32 32" fill="none" xmlns="http://www.w3.org/2000/svg">
<path d="M18.5466 13.4533C19.2221 14.1288 19.6015 15.0448 19.6015 16C19.6015 16.9552 19.2221 17.8712 18.5466 18.5467C17.8712 19.2221 16.9552 19.6015 16 19.6015C15.0448 19.6015 14.1287 19.2221 13.4533 18.5467C12.7779 17.8712 12.3984 16.9552 12.3984 16C12.3984 15.527 12.4916 15.0587 12.6726 14.6218C12.8536 14.1848 13.1189 13.7878 13.4533 13.4533C13.7877 13.1189 14.1848 12.8536 14.6217 12.6726C15.0587 12.4916 15.527 12.3985 16 12.3985C16.9552 12.3985 17.8712 12.7779 18.5466 13.4533" stroke="white" stroke-width="1.5" stroke-linecap="round" stroke-linejoin="round"/>
<path d="M7.00005 16C7.00005 16.396 7.03605 16.792 7.08405 17.176L4.96672 18.832C4.73962 19.0098 4.58437 19.2637 4.5295 19.5469C4.47462 19.8301 4.52382 20.1235 4.66805 20.3733L6.55072 23.6307C6.6949 23.8801 6.92419 24.0692 7.19654 24.1633C7.46888 24.2573 7.766 24.25 8.03338 24.1427L9.92939 23.3813C10.114 23.3099 10.3132 23.2846 10.5097 23.3076C10.7063 23.3306 10.8943 23.4012 11.0574 23.5133C11.3507 23.708 11.6547 23.8867 11.9694 24.0467C12.3294 24.2293 12.5907 24.556 12.6481 24.956L12.9374 26.9733C13.0214 27.5627 13.5267 28 14.1214 28H17.8774C18.1653 28 18.4435 27.8962 18.661 27.7076C18.8785 27.519 19.0206 27.2583 19.0614 26.9733L19.3507 24.9573C19.3822 24.7616 19.4609 24.5765 19.5798 24.4178C19.6987 24.2592 19.8544 24.1318 20.0334 24.0467C20.3467 23.8893 20.6494 23.712 20.9414 23.5187C21.1049 23.4053 21.2936 23.3337 21.4912 23.3099C21.6887 23.2862 21.889 23.3112 22.0747 23.3827L23.9667 24.1427C24.2341 24.2497 24.5312 24.2569 24.8034 24.1629C25.0757 24.0688 25.305 23.8799 25.4494 23.6307L27.3321 20.3733C27.4763 20.1235 27.5255 19.8301 27.4706 19.5469C27.4157 19.2637 27.2605 19.0098 27.0334 18.832L24.9161 17.176C24.9641 16.792 25.0001 16.396 25.0001 16C25.0001 15.604 24.9641 15.208 24.9161 14.824L27.0334 13.168C27.2605 12.9902 27.4157 12.7363 27.4706 12.4531C27.5255 12.1699 27.4763 11.8765 27.3321 11.6267L25.4494 8.36933C25.3052 8.11988 25.0759 7.93078 24.8036 7.83674C24.5312 7.74269 24.2341 7.75 23.9667 7.85733L22.0747 8.61733C21.889 8.68845 21.6887 8.71323 21.4912 8.68953C21.2938 8.66584 21.105 8.59438 20.9414 8.48133C20.6495 8.2874 20.3463 8.11109 20.0334 7.95333C19.8544 7.86818 19.6987 7.7408 19.5798 7.58217C19.4609 7.42354 19.3822 7.2384 19.3507 7.04267L19.0627 5.02667C19.022 4.7417 18.8798 4.48099 18.6623 4.2924C18.4448 4.10381 18.1666 3.99999 17.8787 4H14.1227C13.8348 3.99999 13.5566 4.10381 13.3391 4.2924C13.1216 4.48099 12.9795 4.7417 12.9387 5.02667L12.6481 7.04533C12.6165 7.24035 12.5383 7.42487 12.4202 7.58319C12.302 7.74151 12.1474 7.86895 11.9694 7.95467C11.6547 8.11467 11.3507 8.29467 11.0574 8.488C10.8938 8.59961 10.7056 8.66981 10.5088 8.69258C10.3121 8.71534 10.1128 8.68997 9.92805 8.61867L8.03338 7.85733C7.766 7.75 7.46888 7.74269 7.19654 7.83674C6.92419 7.93078 6.6949 8.11988 6.55072 8.36933L4.66805 11.6267C4.52382 11.8765 4.47462 12.1699 4.5295 12.4531C4.58437 12.7363 4.73962 12.9902 4.96672 13.168L7.08405 14.824C7.03177 15.2139 7.00372 15.6066 7.00005 16V16Z" stroke="white" stroke-width="1.5" stroke-linecap="round" stroke-linejoin="round"/>
</svg>
